<?xml version="1.0" encoding="iso-8859-1"?>
<!-- Generator: Adobe Illustrator 19.0.0, SVG Export Plug-In . SVG Version: 6.00 Build 0)  -->
<svg version="1.1" id="Capa_1" xmlns="http://www.w3.org/2000/svg" xmlns:xlink="http://www.w3.org/1999/xlink" x="0px" y="0px"
	 viewBox="0 0 512 512" style="enable-background:new 0 0 512 512;" xml:space="preserve">
<g>
	<g>
		<path d="M106.667,53.333H64c-5.891,0-10.667,4.776-10.667,10.667v42.667c0,5.891,4.776,10.667,10.667,10.667h42.667
			c5.891,0,10.667-4.776,10.667-10.667V64C117.333,58.109,112.558,53.333,106.667,53.333z M96,96H74.667V74.667H96V96z"/>
	</g>
</g>
<g>
	<g>
		<path d="M106.667,138.667H64c-5.891,0-10.667,4.776-10.667,10.667V192c0,5.891,4.776,10.667,10.667,10.667h42.667
			c5.891,0,10.667-4.776,10.667-10.667v-42.667C117.333,143.442,112.558,138.667,106.667,138.667z M96,181.333H74.667V160H96
			V181.333z"/>
	</g>
</g>
<g>
	<g>
		<path d="M106.667,224H64c-5.891,0-10.667,4.776-10.667,10.667v42.667C53.333,283.224,58.109,288,64,288h42.667
			c5.891,0,10.667-4.776,10.667-10.667v-42.667C117.333,228.776,112.558,224,106.667,224z M96,266.667H74.667v-21.333H96V266.667z"
			/>
	</g>
</g>
<g>
	<g>
		<path d="M106.667,309.333H64c-5.891,0-10.667,4.776-10.667,10.667v42.667c0,5.891,4.776,10.667,10.667,10.667h42.667
			c5.891,0,10.667-4.776,10.667-10.667V320C117.333,314.109,112.558,309.333,106.667,309.333z M96,352H74.667v-21.333H96V352z"/>
	</g>
</g>
<g>
	<g>
		<path d="M106.667,394.667H64c-5.891,0-10.667,4.776-10.667,10.667V448c0,5.891,4.776,10.667,10.667,10.667h42.667
			c5.891,0,10.667-4.776,10.667-10.667v-42.667C117.333,399.442,112.558,394.667,106.667,394.667z M96,437.333H74.667V416H96
			V437.333z"/>
	</g>
</g>
<g>
	<g>
		<path d="M448,53.333h-42.667c-5.891,0-10.667,4.776-10.667,10.667v42.667c0,5.891,4.776,10.667,10.667,10.667H448
			c5.891,0,10.667-4.776,10.667-10.667V64C458.667,58.109,453.891,53.333,448,53.333z M437.333,96H416V74.667h21.333V96z"/>
	</g>
</g>
<g>
	<g>
		<path d="M448,138.667h-42.667c-5.891,0-10.667,4.776-10.667,10.667V192c0,5.891,4.776,10.667,10.667,10.667H448
			c5.891,0,10.667-4.776,10.667-10.667v-42.667C458.667,143.442,453.891,138.667,448,138.667z M437.333,181.333H416V160h21.333
			V181.333z"/>
	</g>
</g>
<g>
	<g>
		<path d="M448,224h-42.667c-5.891,0-10.667,4.776-10.667,10.667v42.667c0,5.891,4.776,10.667,10.667,10.667H448
			c5.891,0,10.667-4.776,10.667-10.667v-42.667C458.667,228.776,453.891,224,448,224z M437.333,266.667H416v-21.333h21.333V266.667z
			"/>
	</g>
</g>
<g>
	<g>
		<path d="M448,309.333h-42.667c-5.891,0-10.667,4.776-10.667,10.667v42.667c0,5.891,4.776,10.667,10.667,10.667H448
			c5.891,0,10.667-4.776,10.667-10.667V320C458.667,314.109,453.891,309.333,448,309.333z M437.333,352H416v-21.333h21.333V352z"/>
	</g>
</g>
<g>
	<g>
		<path d="M448,394.667h-42.667c-5.891,0-10.667,4.776-10.667,10.667V448c0,5.891,4.776,10.667,10.667,10.667H448
			c5.891,0,10.667-4.776,10.667-10.667v-42.667C458.667,399.442,453.891,394.667,448,394.667z M437.333,437.333H416V416h21.333
			V437.333z"/>
	</g>
</g>
<g>
	<g>
		<path d="M458.667,0H352c-5.891,0-10.667,4.776-10.667,10.667v128H170.667v-128C170.667,4.776,165.891,0,160,0H53.333
			C23.893,0.035,0.035,23.893,0,53.333v405.333C0.035,488.107,23.893,511.965,53.333,512H160c5.891,0,10.667-4.776,10.667-10.667
			v-128h170.667v128c0,5.891,4.776,10.667,10.667,10.667h106.667c29.441-0.035,53.298-23.893,53.333-53.333V53.333
			C511.965,23.893,488.107,0.035,458.667,0z M490.667,458.667c0,17.673-14.327,32-32,32h-96V373.333
			c0-11.782-9.551-21.333-21.333-21.333H170.667c-11.782,0-21.333,9.551-21.333,21.333v117.333h-96c-17.673,0-32-14.327-32-32
			V53.333c0-17.673,14.327-32,32-32h96v117.333c0,11.782,9.551,21.333,21.333,21.333h170.667c11.782,0,21.333-9.551,21.333-21.333
			V21.333h96c17.673,0,32,14.327,32,32V458.667z"/>
	</g>
</g>
<g>
	<g>
		<rect x="192" y="21.333" width="128" height="21.333"/>
	</g>
</g>
<g>
	<g>
		<rect x="192" y="469.333" width="128" height="21.333"/>
	</g>
</g>
<g>
	<g>
		<rect x="160" y="192" width="21.333" height="128"/>
	</g>
</g>
<g>
	<g>
		<rect x="234.667" y="192" width="21.333" height="128"/>
	</g>
</g>
<g>
	<g>
		<rect x="170.667" y="245.333" width="74.667" height="21.333"/>
	</g>
</g>
<g>
	<g>
		<path d="M348.875,205.792l-10.667-10.667c-2-2-4.713-3.125-7.541-3.125h-53.333c-5.891,0-10.667,4.776-10.667,10.667v106.667
			c0,5.891,4.776,10.667,10.667,10.667h53.333c2.829-0.001,5.541-1.125,7.541-3.125l10.667-10.667c2.001-2,3.125-4.713,3.125-7.541
			v-85.333C351.999,210.505,350.875,207.792,348.875,205.792z M330.667,294.251l-4.416,4.416H288v-85.333h38.251l4.416,4.416
			V294.251z"/>
	</g>
</g>
<g>
</g>
<g>
</g>
<g>
</g>
<g>
</g>
<g>
</g>
<g>
</g>
<g>
</g>
<g>
</g>
<g>
</g>
<g>
</g>
<g>
</g>
<g>
</g>
<g>
</g>
<g>
</g>
<g>
</g>
</svg>
