<?xml version="1.0" encoding="iso-8859-1"?>
<!-- Generator: Adobe Illustrator 19.0.0, SVG Export Plug-In . SVG Version: 6.00 Build 0)  -->
<svg version="1.1" id="Capa_1" xmlns="http://www.w3.org/2000/svg" xmlns:xlink="http://www.w3.org/1999/xlink" x="0px" y="0px"
	 viewBox="0 0 512 512" style="enable-background:new 0 0 512 512;" xml:space="preserve">
<g>
	<g>
		<path d="M441.963,64h-9.259c-1.449,0-2.897,0.09-4.334,0.27c-19.085,2.392-32.617,19.802-30.226,38.887l4.629,37.003
			c2.197,17.419,17.003,30.489,34.56,30.507c17.557-0.018,32.363-13.087,34.56-30.507l4.629-37.003
			c0.18-1.438,0.271-2.885,0.27-4.334C476.791,79.589,461.197,63.998,441.963,64z M455.349,100.512l-4.619,37.003
			c-0.773,6.115-5.589,10.93-11.703,11.703c-7.399,0.936-14.156-4.304-15.091-11.703l-4.619-37.003
			c-0.069-0.551-0.104-1.106-0.104-1.662c-0.007-7.458,6.033-13.51,13.491-13.517h9.259c0.556,0.001,1.11,0.035,1.662,0.104
			C451.025,86.362,456.274,93.112,455.349,100.512z"/>
	</g>
</g>
<g>
	<g>
		<path d="M389.333,145.813c-13.201,7.656-22.512,20.576-25.6,35.52h-33.067c-17.673,0-32,14.327-32,32c0,17.673,14.327,32,32,32h32
			V288H384v-53.333c0-5.891-4.776-10.667-10.667-10.667h-42.667c-5.891,0-10.667-4.776-10.667-10.667
			c0-5.891,4.776-10.667,10.667-10.667h42.667c5.891,0,10.667-4.776,10.667-10.667c0.028-11.43,6.118-21.988,16-27.733
			L389.333,145.813z"/>
	</g>
</g>
<g>
	<g>
		
			<rect x="277.348" y="105.468" transform="matrix(0.7593 -0.6508 0.6508 0.7593 -31.3031 224.6617)" width="21.323" height="98.347"/>
	</g>
</g>
<g>
	<g>
		<path d="M277.131,323.549c-15.712-17.561-42.686-19.06-60.247-3.348c-17.561,15.712-19.06,42.686-3.348,60.247l15.893-14.229
			c-7.239-8.097-7.239-20.341,0-28.438c7.853-8.784,21.339-9.538,30.123-1.685c8.784,7.853,9.538,21.339,1.685,30.123l15.893,14.229
			C291.623,364.25,291.623,339.747,277.131,323.549z"/>
	</g>
</g>
<g>
	<g>
		<path d="M245.333,362.667c-41.237,0-74.667,33.429-74.667,74.667v53.333H192v-53.333C192,407.878,215.878,384,245.333,384
			c29.455,0,53.333,23.878,53.333,53.333v53.333H320v-53.333C320,396.096,286.571,362.667,245.333,362.667z"/>
	</g>
</g>
<g>
	<g>
		<rect x="266.667" y="437.333" width="21.333" height="53.333"/>
	</g>
</g>
<g>
	<g>
		<path d="M149.131,323.549c-15.712-17.561-42.686-19.06-60.247-3.348c-17.561,15.712-19.06,42.686-3.348,60.247l15.893-14.229
			c-7.239-8.097-7.239-20.341,0-28.438c7.853-8.784,21.339-9.538,30.123-1.685s9.538,21.339,1.685,30.123l15.893,14.229
			C163.623,364.25,163.623,339.747,149.131,323.549z"/>
	</g>
</g>
<g>
	<g>
		<path d="M117.333,362.667c-41.237,0-74.667,33.429-74.667,74.667v53.333H64v-53.333C64,407.878,87.878,384,117.333,384
			c29.455,0,53.333,23.878,53.333,53.333v53.333H192v-53.333C192,396.096,158.571,362.667,117.333,362.667z"/>
	</g>
</g>
<g>
	<g>
		<rect x="74.667" y="437.333" width="21.333" height="53.333"/>
	</g>
</g>
<g>
	<g>
		<g>
			<polygon points="405.131,380.448 405.131,380.448 405.131,380.448 			"/>
			<path d="M405.131,323.549c-15.712-17.561-42.686-19.06-60.247-3.348s-19.06,42.686-3.348,60.247l15.893-14.229
				c-7.239-8.097-7.239-20.341,0-28.438c7.853-8.784,21.339-9.538,30.123-1.685c8.784,7.853,9.538,21.339,1.685,30.123
				l15.893,14.229C419.623,364.25,419.623,339.747,405.131,323.549z"/>
		</g>
	</g>
</g>
<g>
	<g>
		<path d="M485.333,145.813l-10.667,18.453c9.882,5.746,15.972,16.303,16,27.733v277.333H448v-32
			c0-41.237-33.429-74.667-74.667-74.667c-41.237,0-74.667,33.429-74.667,74.667v53.333H320v-53.333
			C320,407.878,343.878,384,373.333,384s53.333,23.878,53.333,53.333V480c0,5.891,4.776,10.667,10.667,10.667h64
			c5.891,0,10.667-4.776,10.667-10.667V192C511.958,172.958,501.804,155.371,485.333,145.813z"/>
	</g>
</g>
<g>
	<g>
		<rect x="330.667" y="437.333" width="21.333" height="53.333"/>
	</g>
</g>
<g>
	<g>
		<path d="M461.792,184.459l-24.459,24.459l-24.459-24.459l-15.083,15.083l32,32c2,2.001,4.713,3.125,7.541,3.125
			c2.829-0.001,5.541-1.125,7.541-3.125l32-32L461.792,184.459z"/>
	</g>
</g>
<g>
	<g>
		<rect x="426.667" y="213.333" width="21.333" height="117.333"/>
	</g>
</g>
<g>
	<g>
		<path d="M437.333,21.333H10.667C4.776,21.333,0,26.109,0,32v245.333C0,283.224,4.776,288,10.667,288h330.667v-21.333h-320v-224
			h405.333v32H448V32C448,26.109,443.224,21.333,437.333,21.333z"/>
	</g>
</g>
<g>
	<g>
		<rect y="277.333" width="21.333" height="64"/>
	</g>
</g>
<g>
	<g>
		<rect y="362.667" width="21.333" height="21.333"/>
	</g>
</g>
<g>
	<g>
		<rect y="405.333" width="21.333" height="21.333"/>
	</g>
</g>
<g>
	<g>
		<path d="M213.333,85.333V64h-160c-5.891,0-10.667,4.776-10.667,10.667v42.667c0,5.891,4.776,10.667,10.667,10.667h160v-21.333H64
			V85.333H213.333z"/>
	</g>
</g>
<g>
	<g>
		<rect x="42.667" y="149.333" width="85.333" height="21.333"/>
	</g>
</g>
<g>
	<g>
		<rect x="149.333" y="149.333" width="21.333" height="21.333"/>
	</g>
</g>
<g>
	<g>
		<rect x="192" y="149.333" width="21.333" height="21.333"/>
	</g>
</g>
<g>
	<g>
		<rect x="42.667" y="192" width="21.333" height="21.333"/>
	</g>
</g>
<g>
	<g>
		<rect x="85.333" y="192" width="21.333" height="21.333"/>
	</g>
</g>
<g>
	<g>
		<rect x="128" y="192" width="85.333" height="21.333"/>
	</g>
</g>
<g>
</g>
<g>
</g>
<g>
</g>
<g>
</g>
<g>
</g>
<g>
</g>
<g>
</g>
<g>
</g>
<g>
</g>
<g>
</g>
<g>
</g>
<g>
</g>
<g>
</g>
<g>
</g>
<g>
</g>
</svg>
